<svg width="212" height="212" viewBox="0 0 212 212" fill="none" xmlns="http://www.w3.org/2000/svg">
<path d="M199.44 12.5597C196.52 9.64012 192.559 8 188.43 8C184.3 8 180.34 9.64012 177.42 12.5597L106 83.9792L34.5805 12.5597C31.66 9.64012 27.6996 8 23.5701 8C19.4406 8 15.4801 9.64012 12.5597 12.5597C9.64012 15.4801 8 19.4406 8 23.5701C8 27.6996 9.64012 31.66 12.5597 34.5805L83.9792 106L12.5597 177.42C9.64012 180.34 8 184.3 8 188.43C8 192.559 9.64012 196.52 12.5597 199.44C15.4801 202.36 19.4406 204 23.5701 204C27.6996 204 31.66 202.36 34.5805 199.44L106 128.021L177.42 199.44C180.34 202.36 184.3 204 188.43 204C192.559 204 196.52 202.36 199.44 199.44C202.36 196.52 204 192.559 204 188.43C204 184.3 202.36 180.34 199.44 177.42L128.021 106L199.44 34.5805C202.36 31.66 204 27.6996 204 23.5701C204 19.4406 202.36 15.4801 199.44 12.5597Z" fill="#CCCCCC" stroke="#CCCCCC" stroke-width="16"/>
</svg>
