<svg width="512" height="512" viewBox="0 0 512 512" fill="none" xmlns="http://www.w3.org/2000/svg">
<path d="M256 341.333C244.218 341.333 234.667 350.885 234.667 362.667C234.667 374.449 244.218 384 256 384C267.782 384 277.333 374.449 277.333 362.667C277.333 350.885 267.782 341.333 256 341.333Z" fill="#606060"/>
<path d="M240 298.667C240 302.91 241.686 306.98 244.686 309.98C247.687 312.981 251.757 314.667 256 314.667C260.243 314.667 264.313 312.981 267.314 309.98C270.314 306.98 272 302.91 272 298.667H240ZM272 149.333C272 145.09 270.314 141.02 267.314 138.02C264.313 135.019 260.243 133.333 256 133.333C251.757 133.333 247.687 135.019 244.686 138.02C241.686 141.02 240 145.09 240 149.333H272ZM453.333 256C453.333 308.336 432.543 358.529 395.536 395.536C358.529 432.543 308.336 453.333 256 453.333V485.333C382.656 485.333 485.333 382.656 485.333 256H453.333ZM256 453.333C203.664 453.333 153.471 432.543 116.464 395.536C79.4571 358.529 58.6667 308.336 58.6667 256H26.6667C26.6667 382.656 129.344 485.333 256 485.333V453.333ZM58.6667 256C58.6667 203.664 79.4571 153.471 116.464 116.464C153.471 79.4571 203.664 58.6667 256 58.6667V26.6667C129.344 26.6667 26.6667 129.344 26.6667 256H58.6667ZM256 58.6667C308.336 58.6667 358.529 79.4571 395.536 116.464C432.543 153.471 453.333 203.664 453.333 256H485.333C485.333 129.344 382.656 26.6667 256 26.6667V58.6667ZM272 298.667V149.333H240V298.667H272Z" fill="#606060"/>
</svg>
