<svg width="24" height="24" viewBox="0 0 24 24" fill="none" xmlns="http://www.w3.org/2000/svg">
<path fill-rule="evenodd" clip-rule="evenodd" d="M19.2205 9.69349C18.7487 9.49804 18.2056 9.60608 17.8445 9.96724L9.96818 17.8442C9.60705 18.2054 9.49901 18.7485 9.69445 19.2204C9.88992 19.6924 10.3503 20 10.861 20H18.7373C19.4347 20 20 19.4346 20 18.7371V10.8602C20 10.3494 19.6924 9.88895 19.2205 9.69349ZM14.0319 6.15575C14.3931 5.79459 14.5011 5.25144 14.3056 4.77955C14.1102 4.30769 13.6498 4 13.139 4H5.26279C4.56543 4 4 4.56538 4 5.2628V13.1398C4 13.6505 4.30784 14.111 4.77958 14.3065C5.2514 14.5019 5.79451 14.3939 6.15564 14.0327L14.0319 6.15575Z" fill="#CCCCCC"/>
</svg>
