<svg width="512" height="512" viewBox="0 0 512 512" fill="none" xmlns="http://www.w3.org/2000/svg">
<path d="M470.281 446.63L361.32 331.775C389.346 298.075 404.707 255.414 404.686 211.34C404.686 108.042 321.764 24 219.843 24C117.922 24 35 108.042 35 211.34C35 314.637 117.922 398.68 219.843 398.68C258.106 398.68 294.568 386.983 325.742 364.779L435.531 480.506C440.12 485.337 446.292 488 452.906 488C459.166 488 465.106 485.581 469.614 481.182C474.216 476.686 476.87 470.523 476.995 464.046C477.12 457.569 474.706 451.306 470.281 446.63ZM219.843 72.8713C295.179 72.8713 356.466 134.987 356.466 211.34C356.466 287.693 295.179 349.808 219.843 349.808C144.507 349.808 83.2199 287.693 83.2199 211.34C83.2199 134.987 144.507 72.8713 219.843 72.8713Z" fill="#606060" stroke="#606060" stroke-width="15"/>
</svg>
